<svg width="128.125" height="128" viewBox="0 0 128.125 128" xmlns="http://www.w3.org/2000/svg"><defs><style>@font-face{font-family:ifont;src:url(//at.alicdn.com/t/font_1442373896_4754455.eot?#iefix) format(&quot;embedded-opentype&quot;),url(//at.alicdn.com/t/font_1442373896_4754455.woff) format(&quot;woff&quot;),url(//at.alicdn.com/t/font_1442373896_4754455.ttf) format(&quot;truetype&quot;),url(//at.alicdn.com/t/font_1442373896_4754455.svg#ifont) format(&quot;svg&quot;)}</style></defs><path d="M109.286 18.74C97.193 6.656 81.12 0 64.015 0c-17.1 0-33.174 6.657-45.263 18.741C6.659 30.83 0 46.903 0 64c-.003 17.1 6.65 33.17 18.742 45.265C30.83 121.342 46.906 128 64.003 128c17.105 0 33.187-6.662 45.283-18.748 24.955-24.95 24.96-65.552 0-90.513zm-5.9 84.614c-10.519 10.515-24.505 16.311-39.383 16.311-14.867 0-28.85-5.794-39.363-16.299C14.128 92.854 8.34 78.874 8.342 64c0-14.871 5.791-28.853 16.307-39.362C35.164 14.128 49.142 8.34 64.015 8.34c14.874 0 28.854 5.787 39.372 16.298 21.704 21.703 21.704 57.019 0 78.715zm-11.708-23.67l-22.13-12.793V32a5.335 5.335 0 0 0-10.669 0l.001 37.334c0 1.98 2.46 3.638 4.06 4.555.442.666 1.658 1.27 2.4 1.696L87.348 88.92c2.55 1.471 5.313.597 6.785-1.952 1.472-2.551.102-5.81-2.454-7.283zm0 0" fill="#999" class="transform-group"/></svg>